<mxfile host="Electron" agent="Mozilla/5.0 (Windows NT 10.0; Win64; x64) AppleWebKit/537.36 (KHTML, like Gecko) draw.io/24.7.5 Chrome/126.0.6478.183 Electron/31.3.0 Safari/537.36" version="24.7.5">
  <diagram name="Page-1" id="8ta5q66EZqPbWpSNFROV">
    <mxGraphModel dx="2899" dy="1212" grid="1" gridSize="10" guides="1" tooltips="1" connect="1" arrows="1" fold="1" page="1" pageScale="1" pageWidth="827" pageHeight="1169" math="0" shadow="0">
      <root>
        <mxCell id="0" />
        <mxCell id="1" parent="0" />
        <mxCell id="GiSuYP_S_RFWbCbDGpPe-3" value="" style="rounded=0;whiteSpace=wrap;html=1;fillColor=none;" vertex="1" parent="1">
          <mxGeometry x="401" y="400" width="350" height="349" as="geometry" />
        </mxCell>
        <mxCell id="hsWpIS33dI_wy3nLUTte-1" value="" style="shape=image;verticalLabelPosition=bottom;labelBackgroundColor=default;verticalAlign=top;aspect=fixed;imageAspect=0;image=data:image/png,iVBORw0KGgoAAAANSUhEUgAAAOEAAADhCAMAAAAJbSJIAAAAk1BMVEX////eTDbfRSzxp53dSzTeQSfdSDH++vn20MrePyLiQyfqg3X30MziTDT65OHqgXP429fskYX1y8bgWETzv7nfUTvgVED539vumo/0xsDvsKjqfnD99/beOh3tlorxu7Tvq6P77OnkXkrlalnmdWXvoZffORjralfui3/ncF/nf3HvbFnpXkfjLwDkbV3jXkzxc2E35XUbAAAKUElEQVR4nN1dbVvqOBQksQ2KgkVBVEBB4SK7rt7//+u2gi1tc9qTk7c2zJd9nt29TeYmM9MkJ6XX84f1ZPz+wO4328uFx1b9IblmXESMsYjzz+267e5Yx+JlyFmOiL+9tt0jy1jvYlZCdPXSdp+sYjYVrIr4uu1eWUTyIBNMKd722+6YLST3EEHG+PWZUBwxmGBKcd5236xgBGjwrLSY1I7ggeI8+Ilap8Gz0eIMdNEyxbb7aIQmDZ4FRSjoAS2GSxEOemAUQ41+zGSKEzVIiioazCmGGP0UgkFqMSERDPA1XF2DGQLTIh70AMXbtntNAE2Dp1Fsu9/KUAt6GcHYjWrQA6MYht2stQkGYzcXHKdSP4pt914JF0t9ioFo8dmEYhir/lUcaVMMRosGFAPRYoxTCZziykSLYVA0sZtAot8oF7tnN9CprhHFrq36Rxw68Tyj6E+Y+PMM/Puzif7Dip5DFFcmodEdLR5X9BFI8SyiP1vRRwNQi0aj6J0MhMKKfglRNIr+LlAsregHtu2mA9Ff3jZ0oMW27aZ6Rl9HUZth29EPbBuCWgw2+sEz+nOK/pqtezj6BwFqsW7rPhpa12I70V+/dd8Q/ZFIQR/NVqK/cesejv4/S76bf3zc/h0uOXHXuAW7QbbuweifZLXB/dnqfUDj6D36sfNBOBcLWNztaS+snu0GPz5DKfb6z431YDJFn9GvdD64nGCPSe5J/upRi4pn9GD0l7B4J42it+hXPqNHJ2pvQTvu96RF9TN6XIvpex8pHL1EP+WMHo7+EogbOR4oEs/owegvor8n1t24thvyGT0Y/UU8XdEe6Dj66YVA4gG5/7PYEV9TndpNfdV9PUN0VpEXHQ6jX6cQCPeaS+I0dajF5qr7GvAR9tjFkPxQR9FP1+APPvFreG8660UHFHWK8VL8i1+m3OhMDfu5qFeMx6K/OMN/tMr8bFPULcZzxtD2Wb9+MZ7CLN3r7cJZjX49kzlAwWk+NR9tkaJG0OeIE+zpa+1tRmvRr2kyvwzRBdTdQP/hdqJfK+hzCPTv2eh80Ub0G2jwiBnWwotRgZgxRc2gL/QBv5U+bnPD30iDv0DfTHvj9sr8dIO+CLHH23khry9OMIp+/aAvYrDCW3o0oGigRWOTybrwhLdlpkVNiiZBX0IkXFPUi34bJpNR5CsFiiZa1Il+6vW6Zgz2uKOaaFEj+m1pMINgL+g7uFH0U1f9xkEvY3lRagHqkEe7sajBUxfKDC8h9/EW/TNbLlrqQYXhfzdAy2bRrzyKdoK+iirDK34HtO0l+m2bTNZ+lWHEIIoetGgt6KvNVxkyMbROUSX6XZjMsXWJIYuW0B6H4+g3W9E3AWDIoivbWkSj35EGfwAxZBE4UR2u+h0E/alpiCFzYTcNBF2ZzLFlkGH6Vg7loqPot7Gib2gYZphq8RLoi5NVv5ugz1HHMP0vdXYjBE8hyN2q0aJDkzk2W8uwRouD6dfHdrXafnyxmHiKCq40nGrw0Gotw9RRgYnavxv9dnMxet0PicWacvQ7C/pTo/UMUy1ixxs3e5owpeh3F/Q5Kgxvyj1eQnZTwhNtGCvR71qDP2hmCEd/CaNvWplf0W5cBv2pxUaGNXZTwppWrFnIxbVzDR4abGaYRj86Ucmj+PvnFjsfBFGG6UoDerspIaG9zcXj4x8zeUMiAGWYjiI6UYnFmleH89mEXpOkBZyhghb796SyhujhZ5v22uA9ngIFhjWr/iJeab3l6Txd2+i9UmMKDJn4RBguaGXTbLruTTwNoRpDvDL8gziIk97Yi5EyRYZDtDjlicZQjHvv+vcCaVBhGN2jJVQzWqvRe+/BSvcVoOQ07xjB3vqbNiQPPTvdV4ASQ4WzB9qrG2O9eyvdV4AKQ/6BM/yiMtx0SYd43TuZ4bfR/VwSmlbAGcQGJUi8vSDmvcsuMYy+UYYjmjXybW/x6WmaqjBkU/S4/4aY+GnAbtt5L4UZ4qU3NFWJXbrQX2vcBtCBEkOBmiltMXv8fNWrwfYypTEVhowjLzW0NTDfHPdqTI56CK0pMYxXzQyvKUMYDTNZX/ugqMaQDRvLbhLKfIsGp52fWw9uo8iQjxsILij3MaOibfU9LPQVGTLw23a/2BImWzQsXZfvz51PVFWG8FHUAc+UTg6q3wNwrkVlhtGyJhS3lHsLA/nvae54oioz/DFU4HBsQdn1jACCzrVIYMjijbSbcfeur0FPFCkMmeAfRY79u3lMctG6b3I41SKJYfq/X709PiXr/mKdTMYPV6R3tUH9263LUSQy/BmJmA+FEOk/aBvdkAZzOIx+MkNNRM3rE4da9MSwxmQKFJ1FvyeGUtDLcGU3fhg2ajCDIy36YNhsMjkcadEDQ1SDOUUno+ieYX3Qy3ChRfcMG4IeoGh/FF0zVNRgDvsT1TFDJOhl2LcbtwyVTaZA8dayFmOnDBWCXoZdu+GV/ZfLPzafTtRgBourfsEfK7uE/Qt75ZBUkzl1wpoWxTdQ0DXbWHq8hgZzipYclW/Avfq+nXozStDLsKLF+qs6JrdjcpCCHqBoPopiX3+Lxfzx2hq02AfecBJhXPlJDnoZxnbTtEufhoZZZaSByRQomq36sSIg0nGZBK2gBzphQjFGZtHM5OHGGsxgEP3RDqtUm2sPornJ5DDQIn/EHv6q+50oKxo0pwheEi1hpsnQLOhl6Gqx+dD6gKnekw2DHqCoN4pv+Df3qMWGB1jUYA6td1SV7ybqWI2FoJehpcVojzPUSESrJlOgqBH9jr59aSnoZWjYjcK3L+mV5g40mEFDiwrfviQydGEyOehaBC9qlzAi5qEjDWpTrOwhApjQGNoOehlELYov7IMqRCu1HvRAj4hFusg0HZEe51SDmhSxD5g+Up7mJOhlELXYfG2S9BMejk2mQJEU/RFrUiLp5y2cBb0Mkt00fdqI9JkWLxrMQIr+uHYV/ExICj8mk4OmRf4IT9QV4SHeNKhHMd4AL2+LMWUEnQe9DJIWBX+uDuNkStKgl5ioUqT9ptjbqnDjZ/26iykx4VeDmhQFn262k8skSZ4uNg+kH0D0FPQyyK/hgg/4cMhjSjUsa8FkChRtn/XD8Bj0MnzctmlJgxmc37Zpy2RyuK7wb1GDfii2EfQyXGqxlaCX4WwUW9dgDkcUWwt6GW602AGTOcFJ9Lca9DLs201nNJjB8uW+7phMDrta7JQGM9ik2I2gl2FPix0JehmWRrGDGsxhhWKHgl6GDS120mROsHC5r2NBL8PUbjqswQxGq/4um0wOEy12XIMZ9Cv8uxr0MnRXGp0NehlaEzUIDebQmKidDnoZdLsJxGROIK/6Ox/0MmjRH5QGMxBW/WGZTA51LQanwQyq0R9O0MtQs5uAgl6GwigGqsEcqBYDC3oZmN0EazInIKv+AINeRlP0B67BDLXRH7rJ5KjT4hloMAMc/SEHvQxAi1HQQS9jfFUp1OPQb60FjefP4kwVfIP/FHloGL1MuYiO9Pjulfxb6CFgPRnv79n0e75NPPL7H2S6vUuTW+B0AAAAAElFTkSuQmCC;" parent="1" vertex="1">
          <mxGeometry x="130" y="100" width="50" height="50" as="geometry" />
        </mxCell>
        <mxCell id="hsWpIS33dI_wy3nLUTte-3" value="" style="rounded=0;whiteSpace=wrap;html=1;fillColor=none;" parent="1" vertex="1">
          <mxGeometry x="130" y="100" width="350" height="250" as="geometry" />
        </mxCell>
        <mxCell id="hsWpIS33dI_wy3nLUTte-2" value="parent-project" style="text;html=1;align=left;verticalAlign=middle;whiteSpace=wrap;rounded=0;fontSize=14;" parent="1" vertex="1">
          <mxGeometry x="150" y="170" width="180" height="30" as="geometry" />
        </mxCell>
        <mxCell id="hsWpIS33dI_wy3nLUTte-4" value="parent-project.git" style="text;html=1;align=left;verticalAlign=middle;whiteSpace=wrap;rounded=0;fontSize=14;" parent="1" vertex="1">
          <mxGeometry x="190" y="110" width="180" height="30" as="geometry" />
        </mxCell>
        <mxCell id="hsWpIS33dI_wy3nLUTte-7" value="" style="shape=note;whiteSpace=wrap;html=1;backgroundOutline=1;darkOpacity=0.05;fillColor=none;size=18;" parent="1" vertex="1">
          <mxGeometry x="180" y="210" width="240" height="120" as="geometry" />
        </mxCell>
        <mxCell id="hsWpIS33dI_wy3nLUTte-5" value="&lt;u&gt;pom.xml&lt;/u&gt;" style="text;html=1;align=left;verticalAlign=middle;whiteSpace=wrap;rounded=0;fontSize=14;" parent="1" vertex="1">
          <mxGeometry x="180" y="210" width="80" height="30" as="geometry" />
        </mxCell>
        <mxCell id="hsWpIS33dI_wy3nLUTte-8" value="&lt;div&gt;&lt;span style=&quot;background-color: initial;&quot;&gt;&amp;lt;build&amp;gt;&lt;/span&gt;&lt;br&gt;&lt;/div&gt;&lt;div&gt;&amp;nbsp; &amp;lt;pluginManagement&amp;gt;&lt;/div&gt;&lt;div&gt;&amp;lt;/build&amp;gt;&lt;/div&gt;&lt;div&gt;&amp;lt;profiles/&amp;gt;&lt;/div&gt;" style="text;html=1;align=left;verticalAlign=top;whiteSpace=wrap;rounded=0;fontSize=14;" parent="1" vertex="1">
          <mxGeometry x="200" y="240" width="210" height="90" as="geometry" />
        </mxCell>
        <mxCell id="hsWpIS33dI_wy3nLUTte-9" value="module-1" style="text;html=1;align=left;verticalAlign=middle;whiteSpace=wrap;rounded=0;fontSize=14;" parent="1" vertex="1">
          <mxGeometry x="420.5" y="459" width="180" height="30" as="geometry" />
        </mxCell>
        <mxCell id="hsWpIS33dI_wy3nLUTte-14" value="" style="shape=note;whiteSpace=wrap;html=1;backgroundOutline=1;darkOpacity=0.05;fillColor=none;size=18;" parent="1" vertex="1">
          <mxGeometry x="451.5" y="498" width="288.5" height="231" as="geometry" />
        </mxCell>
        <mxCell id="hsWpIS33dI_wy3nLUTte-10" value="&lt;u&gt;pom.xml&lt;/u&gt;" style="text;html=1;align=left;verticalAlign=middle;whiteSpace=wrap;rounded=0;fontSize=14;" parent="1" vertex="1">
          <mxGeometry x="451.5" y="498" width="80" height="30" as="geometry" />
        </mxCell>
        <mxCell id="hsWpIS33dI_wy3nLUTte-15" value="&lt;div&gt;&lt;span style=&quot;background-color: initial;&quot;&gt;&amp;lt;parent/&amp;gt;&lt;/span&gt;&lt;br&gt;&lt;/div&gt;&lt;div&gt;&lt;span style=&quot;background-color: initial;&quot;&gt;&lt;div&gt;&amp;lt;dependencyManagement&amp;gt;&lt;/div&gt;&lt;div&gt;&amp;nbsp; &amp;nbsp; &amp;lt;dependencies&amp;gt;&lt;/div&gt;&lt;div&gt;&amp;nbsp; &amp;nbsp; &amp;nbsp; &amp;nbsp; &amp;lt;dependency&amp;gt;&lt;/div&gt;&lt;div&gt;&amp;nbsp; &amp;nbsp; &amp;nbsp; &amp;nbsp; &amp;nbsp; &amp;nbsp; &amp;lt;artifactId&amp;gt;bom&amp;lt;/artifactId&amp;gt;&lt;/div&gt;&lt;div&gt;&amp;nbsp; &amp;nbsp; &amp;nbsp; &amp;nbsp; &amp;nbsp; &amp;nbsp; &amp;lt;type&amp;gt;pom&amp;lt;/type&amp;gt;&lt;/div&gt;&lt;div&gt;&amp;nbsp; &amp;nbsp; &amp;nbsp; &amp;nbsp; &amp;nbsp; &amp;nbsp; &amp;lt;scope&amp;gt;import&amp;lt;/scope&amp;gt;&lt;/div&gt;&lt;div&gt;&amp;nbsp; &amp;nbsp; &amp;nbsp; &amp;nbsp; &amp;lt;/dependency&amp;gt;&lt;/div&gt;&lt;div&gt;&amp;nbsp; &amp;nbsp; &amp;lt;/dependencies&amp;gt;&lt;/div&gt;&lt;div&gt;&amp;lt;/dependencyManagement&amp;gt;&lt;/div&gt;&lt;/span&gt;&lt;/div&gt;&lt;div&gt;&lt;div&gt;&amp;lt;dependencies/&amp;gt;&lt;/div&gt;&lt;/div&gt;" style="text;html=1;align=left;verticalAlign=top;whiteSpace=wrap;rounded=0;fontSize=14;" parent="1" vertex="1">
          <mxGeometry x="466.5" y="528" width="253.5" height="201" as="geometry" />
        </mxCell>
        <mxCell id="GiSuYP_S_RFWbCbDGpPe-2" value="" style="shape=image;verticalLabelPosition=bottom;labelBackgroundColor=default;verticalAlign=top;aspect=fixed;imageAspect=0;image=data:image/png,iVBORw0KGgoAAAANSUhEUgAAAOEAAADhCAMAAAAJbSJIAAAAk1BMVEX////eTDbfRSzxp53dSzTeQSfdSDH++vn20MrePyLiQyfqg3X30MziTDT65OHqgXP429fskYX1y8bgWETzv7nfUTvgVED539vumo/0xsDvsKjqfnD99/beOh3tlorxu7Tvq6P77OnkXkrlalnmdWXvoZffORjralfui3/ncF/nf3HvbFnpXkfjLwDkbV3jXkzxc2E35XUbAAAKUElEQVR4nN1dbVvqOBQksQ2KgkVBVEBB4SK7rt7//+u2gi1tc9qTk7c2zJd9nt29TeYmM9MkJ6XX84f1ZPz+wO4328uFx1b9IblmXESMsYjzz+267e5Yx+JlyFmOiL+9tt0jy1jvYlZCdPXSdp+sYjYVrIr4uu1eWUTyIBNMKd722+6YLST3EEHG+PWZUBwxmGBKcd5236xgBGjwrLSY1I7ggeI8+Ilap8Gz0eIMdNEyxbb7aIQmDZ4FRSjoAS2GSxEOemAUQ41+zGSKEzVIiioazCmGGP0UgkFqMSERDPA1XF2DGQLTIh70AMXbtntNAE2Dp1Fsu9/KUAt6GcHYjWrQA6MYht2stQkGYzcXHKdSP4pt914JF0t9ioFo8dmEYhir/lUcaVMMRosGFAPRYoxTCZziykSLYVA0sZtAot8oF7tnN9CprhHFrq36Rxw68Tyj6E+Y+PMM/Puzif7Dip5DFFcmodEdLR5X9BFI8SyiP1vRRwNQi0aj6J0MhMKKfglRNIr+LlAsregHtu2mA9Ff3jZ0oMW27aZ6Rl9HUZth29EPbBuCWgw2+sEz+nOK/pqtezj6BwFqsW7rPhpa12I70V+/dd8Q/ZFIQR/NVqK/cesejv4/S76bf3zc/h0uOXHXuAW7QbbuweifZLXB/dnqfUDj6D36sfNBOBcLWNztaS+snu0GPz5DKfb6z431YDJFn9GvdD64nGCPSe5J/upRi4pn9GD0l7B4J42it+hXPqNHJ2pvQTvu96RF9TN6XIvpex8pHL1EP+WMHo7+EogbOR4oEs/owegvor8n1t24thvyGT0Y/UU8XdEe6Dj66YVA4gG5/7PYEV9TndpNfdV9PUN0VpEXHQ6jX6cQCPeaS+I0dajF5qr7GvAR9tjFkPxQR9FP1+APPvFreG8660UHFHWK8VL8i1+m3OhMDfu5qFeMx6K/OMN/tMr8bFPULcZzxtD2Wb9+MZ7CLN3r7cJZjX49kzlAwWk+NR9tkaJG0OeIE+zpa+1tRmvRr2kyvwzRBdTdQP/hdqJfK+hzCPTv2eh80Ub0G2jwiBnWwotRgZgxRc2gL/QBv5U+bnPD30iDv0DfTHvj9sr8dIO+CLHH23khry9OMIp+/aAvYrDCW3o0oGigRWOTybrwhLdlpkVNiiZBX0IkXFPUi34bJpNR5CsFiiZa1Il+6vW6Zgz2uKOaaFEj+m1pMINgL+g7uFH0U1f9xkEvY3lRagHqkEe7sajBUxfKDC8h9/EW/TNbLlrqQYXhfzdAy2bRrzyKdoK+iirDK34HtO0l+m2bTNZ+lWHEIIoetGgt6KvNVxkyMbROUSX6XZjMsXWJIYuW0B6H4+g3W9E3AWDIoivbWkSj35EGfwAxZBE4UR2u+h0E/alpiCFzYTcNBF2ZzLFlkGH6Vg7loqPot7Gib2gYZphq8RLoi5NVv5ugz1HHMP0vdXYjBE8hyN2q0aJDkzk2W8uwRouD6dfHdrXafnyxmHiKCq40nGrw0Gotw9RRgYnavxv9dnMxet0PicWacvQ7C/pTo/UMUy1ixxs3e5owpeh3F/Q5Kgxvyj1eQnZTwhNtGCvR71qDP2hmCEd/CaNvWplf0W5cBv2pxUaGNXZTwppWrFnIxbVzDR4abGaYRj86Ucmj+PvnFjsfBFGG6UoDerspIaG9zcXj4x8zeUMiAGWYjiI6UYnFmleH89mEXpOkBZyhghb796SyhujhZ5v22uA9ngIFhjWr/iJeab3l6Txd2+i9UmMKDJn4RBguaGXTbLruTTwNoRpDvDL8gziIk97Yi5EyRYZDtDjlicZQjHvv+vcCaVBhGN2jJVQzWqvRe+/BSvcVoOQ07xjB3vqbNiQPPTvdV4ASQ4WzB9qrG2O9eyvdV4AKQ/6BM/yiMtx0SYd43TuZ4bfR/VwSmlbAGcQGJUi8vSDmvcsuMYy+UYYjmjXybW/x6WmaqjBkU/S4/4aY+GnAbtt5L4UZ4qU3NFWJXbrQX2vcBtCBEkOBmiltMXv8fNWrwfYypTEVhowjLzW0NTDfHPdqTI56CK0pMYxXzQyvKUMYDTNZX/ugqMaQDRvLbhLKfIsGp52fWw9uo8iQjxsILij3MaOibfU9LPQVGTLw23a/2BImWzQsXZfvz51PVFWG8FHUAc+UTg6q3wNwrkVlhtGyJhS3lHsLA/nvae54oioz/DFU4HBsQdn1jACCzrVIYMjijbSbcfeur0FPFCkMmeAfRY79u3lMctG6b3I41SKJYfq/X709PiXr/mKdTMYPV6R3tUH9263LUSQy/BmJmA+FEOk/aBvdkAZzOIx+MkNNRM3rE4da9MSwxmQKFJ1FvyeGUtDLcGU3fhg2ajCDIy36YNhsMjkcadEDQ1SDOUUno+ieYX3Qy3ChRfcMG4IeoGh/FF0zVNRgDvsT1TFDJOhl2LcbtwyVTaZA8dayFmOnDBWCXoZdu+GV/ZfLPzafTtRgBourfsEfK7uE/Qt75ZBUkzl1wpoWxTdQ0DXbWHq8hgZzipYclW/Avfq+nXozStDLsKLF+qs6JrdjcpCCHqBoPopiX3+Lxfzx2hq02AfecBJhXPlJDnoZxnbTtEufhoZZZaSByRQomq36sSIg0nGZBK2gBzphQjFGZtHM5OHGGsxgEP3RDqtUm2sPornJ5DDQIn/EHv6q+50oKxo0pwheEi1hpsnQLOhl6Gqx+dD6gKnekw2DHqCoN4pv+Df3qMWGB1jUYA6td1SV7ybqWI2FoJehpcVojzPUSESrJlOgqBH9jr59aSnoZWjYjcK3L+mV5g40mEFDiwrfviQydGEyOehaBC9qlzAi5qEjDWpTrOwhApjQGNoOehlELYov7IMqRCu1HvRAj4hFusg0HZEe51SDmhSxD5g+Up7mJOhlELXYfG2S9BMejk2mQJEU/RFrUiLp5y2cBb0Mkt00fdqI9JkWLxrMQIr+uHYV/ExICj8mk4OmRf4IT9QV4SHeNKhHMd4AL2+LMWUEnQe9DJIWBX+uDuNkStKgl5ioUqT9ptjbqnDjZ/26iykx4VeDmhQFn262k8skSZ4uNg+kH0D0FPQyyK/hgg/4cMhjSjUsa8FkChRtn/XD8Bj0MnzctmlJgxmc37Zpy2RyuK7wb1GDfii2EfQyXGqxlaCX4WwUW9dgDkcUWwt6GW602AGTOcFJ9Lca9DLs201nNJjB8uW+7phMDrta7JQGM9ik2I2gl2FPix0JehmWRrGDGsxhhWKHgl6GDS120mROsHC5r2NBL8PUbjqswQxGq/4um0wOEy12XIMZ9Cv8uxr0MnRXGp0NehlaEzUIDebQmKidDnoZdLsJxGROIK/6Ox/0MmjRH5QGMxBW/WGZTA51LQanwQyq0R9O0MtQs5uAgl6GwigGqsEcqBYDC3oZmN0EazInIKv+AINeRlP0B67BDLXRH7rJ5KjT4hloMAMc/SEHvQxAi1HQQS9jfFUp1OPQb60FjefP4kwVfIP/FHloGL1MuYiO9Pjulfxb6CFgPRnv79n0e75NPPL7H2S6vUuTW+B0AAAAAElFTkSuQmCC;" vertex="1" parent="1">
          <mxGeometry x="401" y="400" width="50" height="50" as="geometry" />
        </mxCell>
        <mxCell id="GiSuYP_S_RFWbCbDGpPe-4" value="module-1.git" style="text;html=1;align=left;verticalAlign=middle;whiteSpace=wrap;rounded=0;fontSize=14;" vertex="1" parent="1">
          <mxGeometry x="461" y="410" width="180" height="30" as="geometry" />
        </mxCell>
        <mxCell id="GiSuYP_S_RFWbCbDGpPe-5" value="" style="rounded=0;whiteSpace=wrap;html=1;fillColor=none;" vertex="1" parent="1">
          <mxGeometry x="400" y="769" width="350" height="349" as="geometry" />
        </mxCell>
        <mxCell id="GiSuYP_S_RFWbCbDGpPe-6" value="module-2" style="text;html=1;align=left;verticalAlign=middle;whiteSpace=wrap;rounded=0;fontSize=14;" vertex="1" parent="1">
          <mxGeometry x="419.5" y="828" width="180" height="30" as="geometry" />
        </mxCell>
        <mxCell id="GiSuYP_S_RFWbCbDGpPe-7" value="" style="shape=note;whiteSpace=wrap;html=1;backgroundOutline=1;darkOpacity=0.05;fillColor=none;size=18;" vertex="1" parent="1">
          <mxGeometry x="450.5" y="867" width="288.5" height="231" as="geometry" />
        </mxCell>
        <mxCell id="GiSuYP_S_RFWbCbDGpPe-8" value="&lt;u&gt;pom.xml&lt;/u&gt;" style="text;html=1;align=left;verticalAlign=middle;whiteSpace=wrap;rounded=0;fontSize=14;" vertex="1" parent="1">
          <mxGeometry x="450.5" y="867" width="80" height="30" as="geometry" />
        </mxCell>
        <mxCell id="GiSuYP_S_RFWbCbDGpPe-9" value="&lt;div&gt;&lt;span style=&quot;background-color: initial;&quot;&gt;&amp;lt;parent/&amp;gt;&lt;/span&gt;&lt;br&gt;&lt;/div&gt;&lt;div&gt;&lt;span style=&quot;background-color: initial;&quot;&gt;&lt;div&gt;&amp;lt;dependencyManagement&amp;gt;&lt;/div&gt;&lt;div&gt;&amp;nbsp; &amp;nbsp; &amp;lt;dependencies&amp;gt;&lt;/div&gt;&lt;div&gt;&amp;nbsp; &amp;nbsp; &amp;nbsp; &amp;nbsp; &amp;lt;dependency&amp;gt;&lt;/div&gt;&lt;div&gt;&amp;nbsp; &amp;nbsp; &amp;nbsp; &amp;nbsp; &amp;nbsp; &amp;nbsp; &amp;lt;artifactId&amp;gt;bom&amp;lt;/artifactId&amp;gt;&lt;/div&gt;&lt;div&gt;&amp;nbsp; &amp;nbsp; &amp;nbsp; &amp;nbsp; &amp;nbsp; &amp;nbsp; &amp;lt;type&amp;gt;pom&amp;lt;/type&amp;gt;&lt;/div&gt;&lt;div&gt;&amp;nbsp; &amp;nbsp; &amp;nbsp; &amp;nbsp; &amp;nbsp; &amp;nbsp; &amp;lt;scope&amp;gt;import&amp;lt;/scope&amp;gt;&lt;/div&gt;&lt;div&gt;&amp;nbsp; &amp;nbsp; &amp;nbsp; &amp;nbsp; &amp;lt;/dependency&amp;gt;&lt;/div&gt;&lt;div&gt;&amp;nbsp; &amp;nbsp; &amp;lt;/dependencies&amp;gt;&lt;/div&gt;&lt;div&gt;&amp;lt;/dependencyManagement&amp;gt;&lt;/div&gt;&lt;/span&gt;&lt;/div&gt;&lt;div&gt;&lt;div&gt;&amp;lt;dependencies/&amp;gt;&lt;/div&gt;&lt;/div&gt;" style="text;html=1;align=left;verticalAlign=top;whiteSpace=wrap;rounded=0;fontSize=14;" vertex="1" parent="1">
          <mxGeometry x="465.5" y="897" width="253.5" height="201" as="geometry" />
        </mxCell>
        <mxCell id="GiSuYP_S_RFWbCbDGpPe-10" value="" style="shape=image;verticalLabelPosition=bottom;labelBackgroundColor=default;verticalAlign=top;aspect=fixed;imageAspect=0;image=data:image/png,iVBORw0KGgoAAAANSUhEUgAAAOEAAADhCAMAAAAJbSJIAAAAk1BMVEX////eTDbfRSzxp53dSzTeQSfdSDH++vn20MrePyLiQyfqg3X30MziTDT65OHqgXP429fskYX1y8bgWETzv7nfUTvgVED539vumo/0xsDvsKjqfnD99/beOh3tlorxu7Tvq6P77OnkXkrlalnmdWXvoZffORjralfui3/ncF/nf3HvbFnpXkfjLwDkbV3jXkzxc2E35XUbAAAKUElEQVR4nN1dbVvqOBQksQ2KgkVBVEBB4SK7rt7//+u2gi1tc9qTk7c2zJd9nt29TeYmM9MkJ6XX84f1ZPz+wO4328uFx1b9IblmXESMsYjzz+267e5Yx+JlyFmOiL+9tt0jy1jvYlZCdPXSdp+sYjYVrIr4uu1eWUTyIBNMKd722+6YLST3EEHG+PWZUBwxmGBKcd5236xgBGjwrLSY1I7ggeI8+Ilap8Gz0eIMdNEyxbb7aIQmDZ4FRSjoAS2GSxEOemAUQ41+zGSKEzVIiioazCmGGP0UgkFqMSERDPA1XF2DGQLTIh70AMXbtntNAE2Dp1Fsu9/KUAt6GcHYjWrQA6MYht2stQkGYzcXHKdSP4pt914JF0t9ioFo8dmEYhir/lUcaVMMRosGFAPRYoxTCZziykSLYVA0sZtAot8oF7tnN9CprhHFrq36Rxw68Tyj6E+Y+PMM/Puzif7Dip5DFFcmodEdLR5X9BFI8SyiP1vRRwNQi0aj6J0MhMKKfglRNIr+LlAsregHtu2mA9Ff3jZ0oMW27aZ6Rl9HUZth29EPbBuCWgw2+sEz+nOK/pqtezj6BwFqsW7rPhpa12I70V+/dd8Q/ZFIQR/NVqK/cesejv4/S76bf3zc/h0uOXHXuAW7QbbuweifZLXB/dnqfUDj6D36sfNBOBcLWNztaS+snu0GPz5DKfb6z431YDJFn9GvdD64nGCPSe5J/upRi4pn9GD0l7B4J42it+hXPqNHJ2pvQTvu96RF9TN6XIvpex8pHL1EP+WMHo7+EogbOR4oEs/owegvor8n1t24thvyGT0Y/UU8XdEe6Dj66YVA4gG5/7PYEV9TndpNfdV9PUN0VpEXHQ6jX6cQCPeaS+I0dajF5qr7GvAR9tjFkPxQR9FP1+APPvFreG8660UHFHWK8VL8i1+m3OhMDfu5qFeMx6K/OMN/tMr8bFPULcZzxtD2Wb9+MZ7CLN3r7cJZjX49kzlAwWk+NR9tkaJG0OeIE+zpa+1tRmvRr2kyvwzRBdTdQP/hdqJfK+hzCPTv2eh80Ub0G2jwiBnWwotRgZgxRc2gL/QBv5U+bnPD30iDv0DfTHvj9sr8dIO+CLHH23khry9OMIp+/aAvYrDCW3o0oGigRWOTybrwhLdlpkVNiiZBX0IkXFPUi34bJpNR5CsFiiZa1Il+6vW6Zgz2uKOaaFEj+m1pMINgL+g7uFH0U1f9xkEvY3lRagHqkEe7sajBUxfKDC8h9/EW/TNbLlrqQYXhfzdAy2bRrzyKdoK+iirDK34HtO0l+m2bTNZ+lWHEIIoetGgt6KvNVxkyMbROUSX6XZjMsXWJIYuW0B6H4+g3W9E3AWDIoivbWkSj35EGfwAxZBE4UR2u+h0E/alpiCFzYTcNBF2ZzLFlkGH6Vg7loqPot7Gib2gYZphq8RLoi5NVv5ugz1HHMP0vdXYjBE8hyN2q0aJDkzk2W8uwRouD6dfHdrXafnyxmHiKCq40nGrw0Gotw9RRgYnavxv9dnMxet0PicWacvQ7C/pTo/UMUy1ixxs3e5owpeh3F/Q5Kgxvyj1eQnZTwhNtGCvR71qDP2hmCEd/CaNvWplf0W5cBv2pxUaGNXZTwppWrFnIxbVzDR4abGaYRj86Ucmj+PvnFjsfBFGG6UoDerspIaG9zcXj4x8zeUMiAGWYjiI6UYnFmleH89mEXpOkBZyhghb796SyhujhZ5v22uA9ngIFhjWr/iJeab3l6Txd2+i9UmMKDJn4RBguaGXTbLruTTwNoRpDvDL8gziIk97Yi5EyRYZDtDjlicZQjHvv+vcCaVBhGN2jJVQzWqvRe+/BSvcVoOQ07xjB3vqbNiQPPTvdV4ASQ4WzB9qrG2O9eyvdV4AKQ/6BM/yiMtx0SYd43TuZ4bfR/VwSmlbAGcQGJUi8vSDmvcsuMYy+UYYjmjXybW/x6WmaqjBkU/S4/4aY+GnAbtt5L4UZ4qU3NFWJXbrQX2vcBtCBEkOBmiltMXv8fNWrwfYypTEVhowjLzW0NTDfHPdqTI56CK0pMYxXzQyvKUMYDTNZX/ugqMaQDRvLbhLKfIsGp52fWw9uo8iQjxsILij3MaOibfU9LPQVGTLw23a/2BImWzQsXZfvz51PVFWG8FHUAc+UTg6q3wNwrkVlhtGyJhS3lHsLA/nvae54oioz/DFU4HBsQdn1jACCzrVIYMjijbSbcfeur0FPFCkMmeAfRY79u3lMctG6b3I41SKJYfq/X709PiXr/mKdTMYPV6R3tUH9263LUSQy/BmJmA+FEOk/aBvdkAZzOIx+MkNNRM3rE4da9MSwxmQKFJ1FvyeGUtDLcGU3fhg2ajCDIy36YNhsMjkcadEDQ1SDOUUno+ieYX3Qy3ChRfcMG4IeoGh/FF0zVNRgDvsT1TFDJOhl2LcbtwyVTaZA8dayFmOnDBWCXoZdu+GV/ZfLPzafTtRgBourfsEfK7uE/Qt75ZBUkzl1wpoWxTdQ0DXbWHq8hgZzipYclW/Avfq+nXozStDLsKLF+qs6JrdjcpCCHqBoPopiX3+Lxfzx2hq02AfecBJhXPlJDnoZxnbTtEufhoZZZaSByRQomq36sSIg0nGZBK2gBzphQjFGZtHM5OHGGsxgEP3RDqtUm2sPornJ5DDQIn/EHv6q+50oKxo0pwheEi1hpsnQLOhl6Gqx+dD6gKnekw2DHqCoN4pv+Df3qMWGB1jUYA6td1SV7ybqWI2FoJehpcVojzPUSESrJlOgqBH9jr59aSnoZWjYjcK3L+mV5g40mEFDiwrfviQydGEyOehaBC9qlzAi5qEjDWpTrOwhApjQGNoOehlELYov7IMqRCu1HvRAj4hFusg0HZEe51SDmhSxD5g+Up7mJOhlELXYfG2S9BMejk2mQJEU/RFrUiLp5y2cBb0Mkt00fdqI9JkWLxrMQIr+uHYV/ExICj8mk4OmRf4IT9QV4SHeNKhHMd4AL2+LMWUEnQe9DJIWBX+uDuNkStKgl5ioUqT9ptjbqnDjZ/26iykx4VeDmhQFn262k8skSZ4uNg+kH0D0FPQyyK/hgg/4cMhjSjUsa8FkChRtn/XD8Bj0MnzctmlJgxmc37Zpy2RyuK7wb1GDfii2EfQyXGqxlaCX4WwUW9dgDkcUWwt6GW602AGTOcFJ9Lca9DLs201nNJjB8uW+7phMDrta7JQGM9ik2I2gl2FPix0JehmWRrGDGsxhhWKHgl6GDS120mROsHC5r2NBL8PUbjqswQxGq/4um0wOEy12XIMZ9Cv8uxr0MnRXGp0NehlaEzUIDebQmKidDnoZdLsJxGROIK/6Ox/0MmjRH5QGMxBW/WGZTA51LQanwQyq0R9O0MtQs5uAgl6GwigGqsEcqBYDC3oZmN0EazInIKv+AINeRlP0B67BDLXRH7rJ5KjT4hloMAMc/SEHvQxAi1HQQS9jfFUp1OPQb60FjefP4kwVfIP/FHloGL1MuYiO9Pjulfxb6CFgPRnv79n0e75NPPL7H2S6vUuTW+B0AAAAAElFTkSuQmCC;" vertex="1" parent="1">
          <mxGeometry x="400" y="769" width="50" height="50" as="geometry" />
        </mxCell>
        <mxCell id="GiSuYP_S_RFWbCbDGpPe-11" value="module-2.git" style="text;html=1;align=left;verticalAlign=middle;whiteSpace=wrap;rounded=0;fontSize=14;" vertex="1" parent="1">
          <mxGeometry x="460" y="779" width="180" height="30" as="geometry" />
        </mxCell>
        <mxCell id="GiSuYP_S_RFWbCbDGpPe-12" value="" style="shape=image;verticalLabelPosition=bottom;labelBackgroundColor=default;verticalAlign=top;aspect=fixed;imageAspect=0;image=data:image/png,iVBORw0KGgoAAAANSUhEUgAAAOEAAADhCAMAAAAJbSJIAAAAk1BMVEX////eTDbfRSzxp53dSzTeQSfdSDH++vn20MrePyLiQyfqg3X30MziTDT65OHqgXP429fskYX1y8bgWETzv7nfUTvgVED539vumo/0xsDvsKjqfnD99/beOh3tlorxu7Tvq6P77OnkXkrlalnmdWXvoZffORjralfui3/ncF/nf3HvbFnpXkfjLwDkbV3jXkzxc2E35XUbAAAKUElEQVR4nN1dbVvqOBQksQ2KgkVBVEBB4SK7rt7//+u2gi1tc9qTk7c2zJd9nt29TeYmM9MkJ6XX84f1ZPz+wO4328uFx1b9IblmXESMsYjzz+267e5Yx+JlyFmOiL+9tt0jy1jvYlZCdPXSdp+sYjYVrIr4uu1eWUTyIBNMKd722+6YLST3EEHG+PWZUBwxmGBKcd5236xgBGjwrLSY1I7ggeI8+Ilap8Gz0eIMdNEyxbb7aIQmDZ4FRSjoAS2GSxEOemAUQ41+zGSKEzVIiioazCmGGP0UgkFqMSERDPA1XF2DGQLTIh70AMXbtntNAE2Dp1Fsu9/KUAt6GcHYjWrQA6MYht2stQkGYzcXHKdSP4pt914JF0t9ioFo8dmEYhir/lUcaVMMRosGFAPRYoxTCZziykSLYVA0sZtAot8oF7tnN9CprhHFrq36Rxw68Tyj6E+Y+PMM/Puzif7Dip5DFFcmodEdLR5X9BFI8SyiP1vRRwNQi0aj6J0MhMKKfglRNIr+LlAsregHtu2mA9Ff3jZ0oMW27aZ6Rl9HUZth29EPbBuCWgw2+sEz+nOK/pqtezj6BwFqsW7rPhpa12I70V+/dd8Q/ZFIQR/NVqK/cesejv4/S76bf3zc/h0uOXHXuAW7QbbuweifZLXB/dnqfUDj6D36sfNBOBcLWNztaS+snu0GPz5DKfb6z431YDJFn9GvdD64nGCPSe5J/upRi4pn9GD0l7B4J42it+hXPqNHJ2pvQTvu96RF9TN6XIvpex8pHL1EP+WMHo7+EogbOR4oEs/owegvor8n1t24thvyGT0Y/UU8XdEe6Dj66YVA4gG5/7PYEV9TndpNfdV9PUN0VpEXHQ6jX6cQCPeaS+I0dajF5qr7GvAR9tjFkPxQR9FP1+APPvFreG8660UHFHWK8VL8i1+m3OhMDfu5qFeMx6K/OMN/tMr8bFPULcZzxtD2Wb9+MZ7CLN3r7cJZjX49kzlAwWk+NR9tkaJG0OeIE+zpa+1tRmvRr2kyvwzRBdTdQP/hdqJfK+hzCPTv2eh80Ub0G2jwiBnWwotRgZgxRc2gL/QBv5U+bnPD30iDv0DfTHvj9sr8dIO+CLHH23khry9OMIp+/aAvYrDCW3o0oGigRWOTybrwhLdlpkVNiiZBX0IkXFPUi34bJpNR5CsFiiZa1Il+6vW6Zgz2uKOaaFEj+m1pMINgL+g7uFH0U1f9xkEvY3lRagHqkEe7sajBUxfKDC8h9/EW/TNbLlrqQYXhfzdAy2bRrzyKdoK+iirDK34HtO0l+m2bTNZ+lWHEIIoetGgt6KvNVxkyMbROUSX6XZjMsXWJIYuW0B6H4+g3W9E3AWDIoivbWkSj35EGfwAxZBE4UR2u+h0E/alpiCFzYTcNBF2ZzLFlkGH6Vg7loqPot7Gib2gYZphq8RLoi5NVv5ugz1HHMP0vdXYjBE8hyN2q0aJDkzk2W8uwRouD6dfHdrXafnyxmHiKCq40nGrw0Gotw9RRgYnavxv9dnMxet0PicWacvQ7C/pTo/UMUy1ixxs3e5owpeh3F/Q5Kgxvyj1eQnZTwhNtGCvR71qDP2hmCEd/CaNvWplf0W5cBv2pxUaGNXZTwppWrFnIxbVzDR4abGaYRj86Ucmj+PvnFjsfBFGG6UoDerspIaG9zcXj4x8zeUMiAGWYjiI6UYnFmleH89mEXpOkBZyhghb796SyhujhZ5v22uA9ngIFhjWr/iJeab3l6Txd2+i9UmMKDJn4RBguaGXTbLruTTwNoRpDvDL8gziIk97Yi5EyRYZDtDjlicZQjHvv+vcCaVBhGN2jJVQzWqvRe+/BSvcVoOQ07xjB3vqbNiQPPTvdV4ASQ4WzB9qrG2O9eyvdV4AKQ/6BM/yiMtx0SYd43TuZ4bfR/VwSmlbAGcQGJUi8vSDmvcsuMYy+UYYjmjXybW/x6WmaqjBkU/S4/4aY+GnAbtt5L4UZ4qU3NFWJXbrQX2vcBtCBEkOBmiltMXv8fNWrwfYypTEVhowjLzW0NTDfHPdqTI56CK0pMYxXzQyvKUMYDTNZX/ugqMaQDRvLbhLKfIsGp52fWw9uo8iQjxsILij3MaOibfU9LPQVGTLw23a/2BImWzQsXZfvz51PVFWG8FHUAc+UTg6q3wNwrkVlhtGyJhS3lHsLA/nvae54oioz/DFU4HBsQdn1jACCzrVIYMjijbSbcfeur0FPFCkMmeAfRY79u3lMctG6b3I41SKJYfq/X709PiXr/mKdTMYPV6R3tUH9263LUSQy/BmJmA+FEOk/aBvdkAZzOIx+MkNNRM3rE4da9MSwxmQKFJ1FvyeGUtDLcGU3fhg2ajCDIy36YNhsMjkcadEDQ1SDOUUno+ieYX3Qy3ChRfcMG4IeoGh/FF0zVNRgDvsT1TFDJOhl2LcbtwyVTaZA8dayFmOnDBWCXoZdu+GV/ZfLPzafTtRgBourfsEfK7uE/Qt75ZBUkzl1wpoWxTdQ0DXbWHq8hgZzipYclW/Avfq+nXozStDLsKLF+qs6JrdjcpCCHqBoPopiX3+Lxfzx2hq02AfecBJhXPlJDnoZxnbTtEufhoZZZaSByRQomq36sSIg0nGZBK2gBzphQjFGZtHM5OHGGsxgEP3RDqtUm2sPornJ5DDQIn/EHv6q+50oKxo0pwheEi1hpsnQLOhl6Gqx+dD6gKnekw2DHqCoN4pv+Df3qMWGB1jUYA6td1SV7ybqWI2FoJehpcVojzPUSESrJlOgqBH9jr59aSnoZWjYjcK3L+mV5g40mEFDiwrfviQydGEyOehaBC9qlzAi5qEjDWpTrOwhApjQGNoOehlELYov7IMqRCu1HvRAj4hFusg0HZEe51SDmhSxD5g+Up7mJOhlELXYfG2S9BMejk2mQJEU/RFrUiLp5y2cBb0Mkt00fdqI9JkWLxrMQIr+uHYV/ExICj8mk4OmRf4IT9QV4SHeNKhHMd4AL2+LMWUEnQe9DJIWBX+uDuNkStKgl5ioUqT9ptjbqnDjZ/26iykx4VeDmhQFn262k8skSZ4uNg+kH0D0FPQyyK/hgg/4cMhjSjUsa8FkChRtn/XD8Bj0MnzctmlJgxmc37Zpy2RyuK7wb1GDfii2EfQyXGqxlaCX4WwUW9dgDkcUWwt6GW602AGTOcFJ9Lca9DLs201nNJjB8uW+7phMDrta7JQGM9ik2I2gl2FPix0JehmWRrGDGsxhhWKHgl6GDS120mROsHC5r2NBL8PUbjqswQxGq/4um0wOEy12XIMZ9Cv8uxr0MnRXGp0NehlaEzUIDebQmKidDnoZdLsJxGROIK/6Ox/0MmjRH5QGMxBW/WGZTA51LQanwQyq0R9O0MtQs5uAgl6GwigGqsEcqBYDC3oZmN0EazInIKv+AINeRlP0B67BDLXRH7rJ5KjT4hloMAMc/SEHvQxAi1HQQS9jfFUp1OPQb60FjefP4kwVfIP/FHloGL1MuYiO9Pjulfxb6CFgPRnv79n0e75NPPL7H2S6vUuTW+B0AAAAAElFTkSuQmCC;" vertex="1" parent="1">
          <mxGeometry x="-150" y="430" width="50" height="50" as="geometry" />
        </mxCell>
        <mxCell id="GiSuYP_S_RFWbCbDGpPe-13" value="" style="rounded=0;whiteSpace=wrap;html=1;fillColor=none;" vertex="1" parent="1">
          <mxGeometry x="-150" y="430" width="350" height="220" as="geometry" />
        </mxCell>
        <mxCell id="GiSuYP_S_RFWbCbDGpPe-14" value="bom" style="text;html=1;align=left;verticalAlign=middle;whiteSpace=wrap;rounded=0;fontSize=14;" vertex="1" parent="1">
          <mxGeometry x="-130" y="500" width="180" height="30" as="geometry" />
        </mxCell>
        <mxCell id="GiSuYP_S_RFWbCbDGpPe-15" value="bom.git" style="text;html=1;align=left;verticalAlign=middle;whiteSpace=wrap;rounded=0;fontSize=14;" vertex="1" parent="1">
          <mxGeometry x="-90" y="440" width="180" height="30" as="geometry" />
        </mxCell>
        <mxCell id="GiSuYP_S_RFWbCbDGpPe-16" value="" style="shape=note;whiteSpace=wrap;html=1;backgroundOutline=1;darkOpacity=0.05;fillColor=none;size=18;" vertex="1" parent="1">
          <mxGeometry x="-100" y="540" width="240" height="90" as="geometry" />
        </mxCell>
        <mxCell id="GiSuYP_S_RFWbCbDGpPe-17" value="&lt;u&gt;pom.xml&lt;/u&gt;" style="text;html=1;align=left;verticalAlign=middle;whiteSpace=wrap;rounded=0;fontSize=14;" vertex="1" parent="1">
          <mxGeometry x="-100" y="540" width="80" height="30" as="geometry" />
        </mxCell>
        <mxCell id="GiSuYP_S_RFWbCbDGpPe-18" value="&lt;div&gt;&lt;span style=&quot;background-color: initial;&quot;&gt;&amp;lt;packaging&amp;gt;pom&amp;lt;/packaging&amp;gt;&lt;br&gt;&lt;/span&gt;&lt;/div&gt;&lt;div&gt;&lt;span style=&quot;background-color: initial;&quot;&gt;&amp;lt;dependencyManagement/&amp;gt;&lt;/span&gt;&lt;br&gt;&lt;/div&gt;&lt;div&gt;&lt;br&gt;&lt;/div&gt;" style="text;html=1;align=left;verticalAlign=top;whiteSpace=wrap;rounded=0;fontSize=14;" vertex="1" parent="1">
          <mxGeometry x="-80" y="570" width="210" height="50" as="geometry" />
        </mxCell>
        <mxCell id="GiSuYP_S_RFWbCbDGpPe-20" value="" style="endArrow=block;html=1;rounded=0;entryX=0.5;entryY=1;entryDx=0;entryDy=0;exitX=0.008;exitY=0.202;exitDx=0;exitDy=0;exitPerimeter=0;endFill=0;" edge="1" parent="1" source="GiSuYP_S_RFWbCbDGpPe-7" target="hsWpIS33dI_wy3nLUTte-8">
          <mxGeometry width="50" height="50" relative="1" as="geometry">
            <mxPoint x="622" y="703" as="sourcePoint" />
            <mxPoint x="315" y="450" as="targetPoint" />
            <Array as="points">
              <mxPoint x="305" y="914" />
            </Array>
          </mxGeometry>
        </mxCell>
        <mxCell id="GiSuYP_S_RFWbCbDGpPe-21" value="" style="endArrow=block;html=1;rounded=0;entryX=0.5;entryY=1;entryDx=0;entryDy=0;exitX=0.004;exitY=0.192;exitDx=0;exitDy=0;exitPerimeter=0;endFill=0;" edge="1" parent="1" source="hsWpIS33dI_wy3nLUTte-14" target="hsWpIS33dI_wy3nLUTte-8">
          <mxGeometry width="50" height="50" relative="1" as="geometry">
            <mxPoint x="463" y="924" as="sourcePoint" />
            <mxPoint x="315" y="340" as="targetPoint" />
            <Array as="points">
              <mxPoint x="305" y="542" />
            </Array>
          </mxGeometry>
        </mxCell>
        <mxCell id="GiSuYP_S_RFWbCbDGpPe-22" value="" style="endArrow=classic;html=1;rounded=0;entryX=0;entryY=0;entryDx=240;entryDy=54;entryPerimeter=0;exitX=0;exitY=0.5;exitDx=0;exitDy=0;exitPerimeter=0;" edge="1" parent="1" source="hsWpIS33dI_wy3nLUTte-14" target="GiSuYP_S_RFWbCbDGpPe-16">
          <mxGeometry width="50" height="50" relative="1" as="geometry">
            <mxPoint x="320" y="710" as="sourcePoint" />
            <mxPoint x="370" y="660" as="targetPoint" />
          </mxGeometry>
        </mxCell>
        <mxCell id="GiSuYP_S_RFWbCbDGpPe-23" value="" style="endArrow=classic;html=1;rounded=0;entryX=0;entryY=0;entryDx=240;entryDy=54;entryPerimeter=0;exitX=0.008;exitY=0.538;exitDx=0;exitDy=0;exitPerimeter=0;" edge="1" parent="1" source="GiSuYP_S_RFWbCbDGpPe-7" target="GiSuYP_S_RFWbCbDGpPe-16">
          <mxGeometry width="50" height="50" relative="1" as="geometry">
            <mxPoint x="462" y="624" as="sourcePoint" />
            <mxPoint x="150" y="604" as="targetPoint" />
          </mxGeometry>
        </mxCell>
      </root>
    </mxGraphModel>
  </diagram>
</mxfile>
